<?xml version="1.0" encoding="utf-8"?>
<!-- Generator: Adobe Illustrator 22.0.1, SVG Export Plug-In . SVG Version: 6.00 Build 0)  -->
<svg version="1.1" id="Layer_1" xmlns="http://www.w3.org/2000/svg" xmlns:xlink="http://www.w3.org/1999/xlink" x="0px" y="0px"
	 viewBox="0 0 1000 310.9" style="enable-background:new 0 0 1000 310.9;" xml:space="preserve">
<style type="text/css">
	.st0{fill-rule:evenodd;clip-rule:evenodd;fill:#067DA9;}
	.st1{fill-rule:evenodd;clip-rule:evenodd;fill:#0085B8;}
	.st2{fill-rule:evenodd;clip-rule:evenodd;fill:#00AFD2;}
	.st3{fill-rule:evenodd;clip-rule:evenodd;fill:#49BED9;}
	.st4{fill-rule:evenodd;clip-rule:evenodd;fill:#E84646;}
	.st5{fill-rule:evenodd;clip-rule:evenodd;fill:#BA3837;}
	.st6{fill:#067DA9;}
	.st7{fill:#898989;}
</style>
<g>
	<g>
		<path class="st0" d="M9.9,299.1L156.3,153L9.9,11.8V299.1z"/>
		<path class="st1" d="M9.9,299.1L156.3,153L83.1,82.4L9.9,299.1z"/>
		<path class="st2" d="M9.9,11.8L156.3,153L295.5,11.8H9.9z"/>
		<path class="st3" d="M83.1,82.4l73.2,70.6L295.5,11.8L83.1,82.4z"/>
		<path class="st4" d="M309.3,298.9L171.9,171.7L43.1,298.9H309.3z"/>
		<path class="st5" d="M309.3,298.9l-77.5-71.7L43.1,298.9H309.3z"/>
	</g>
	<g>
		<g>
			<path class="st6" d="M340.5,103.8h-28.8v70.5h15.5v-21.2h11.8c15.8,0,28.5-8.5,28.5-24.8v-0.2
				C367.4,113.8,357.3,103.8,340.5,103.8z M351.7,128.7c0,6-4.5,10.7-12.3,10.7h-12.3v-21.6h12c7.7,0,12.6,3.7,12.6,10.7V128.7z
				 M449.7,127.3v-0.2c0-6.7-2.1-12.2-6-16.1c-4.6-4.6-11.6-7.2-20.5-7.2H391v70.5h15.5v-22.6h12h0.2l15.1,22.6h18.1l-17.2-25.2
				C443.6,145.8,449.7,138.7,449.7,127.3z M434,128.1c0,5.9-4.3,10-11.9,10h-15.7v-20.3h15.4c7.5,0,12.2,3.4,12.2,10.1V128.1z
				 M510.2,102.6c-21.7,0-37.5,16.4-37.5,36.5v0.2c0,20.1,15.6,36.3,37.3,36.3c21.7,0,37.5-16.4,37.5-36.5v-0.2
				C547.5,118.8,531.9,102.6,510.2,102.6z M531.3,139.3c0,12.1-8.7,22-21.1,22c-12.5,0-21.3-10.1-21.3-22.2v-0.2
				c0-12.1,8.7-22,21.1-22c12.5,0,21.3,10.1,21.3,22.2V139.3z M608.5,133.7L590,103.8h-16.7v70.5h15.2v-45.7l19.6,29.8h0.4
				l19.8-30.1v46h15.4v-70.5h-16.7L608.5,133.7z M696.9,103.3l-30.2,71h15.8l6.4-15.8h29.8l6.4,15.8h16.2l-30.2-71H696.9z
				 M694.5,144.8l9.4-22.9l9.4,22.9H694.5z M827.1,103.8h-18.7l-28.6,30.8v-30.8h-15.5v70.5h15.5v-21.6l8.2-8.5l21.8,30h18.6
				l-30-40.6L827.1,103.8z M865.2,145.7h33.2v-13.8h-33.2v-14.3h37.7v-13.8h-53.1v70.5h53.6v-13.8h-38.2V145.7z M972.9,149.2
				c9-3.3,15.1-10.5,15.1-21.9v-0.2c0-6.7-2.1-12.2-6-16.1c-4.6-4.6-11.6-7.2-20.5-7.2h-32.2v70.5h15.5v-22.6h12h0.2l15.1,22.6h18.1
				L972.9,149.2z M972.3,128.1c0,5.9-4.3,10-11.9,10h-15.7v-20.3h15.4c7.5,0,12.2,3.4,12.2,10.1V128.1z"/>
		</g>
	</g>
	<g>
		<path class="st7" d="M360.1,230.2c-6.7-1.4-7.3-3.1-7.3-5.1c0-2.2,2.1-4.5,6.1-4.5c2.8,0,5.3,0.9,7.5,2.7l0.8,0.6l2-2.6l-0.8-0.6
			c-2.8-2.2-5.9-3.3-9.5-3.3c-5.4,0-9.5,3.3-9.5,7.8c0,4.3,2.8,6.7,9.7,8c6.7,1.4,7.3,3,7.3,5.1c0,2.8-2.7,4.7-6.5,4.7
			c-3.4,0-6.3-1.2-8.9-3.7l-0.7-0.7l-2.2,2.4l0.7,0.7c3.2,3,6.9,4.4,11.1,4.4c5.8,0,9.8-3.3,9.8-8.1
			C369.7,234,366.8,231.6,360.1,230.2z"/>
		<path class="st7" d="M394.4,217.4c-8,0-14,6.2-14,14.5v0.1c0,8.2,6,14.5,14,14.5c8,0,14-6.2,14-14.5
			C408.4,223.6,402.4,217.4,394.4,217.4z M394.5,243.2c-6,0-10.8-5-10.8-11.4c0-6.4,4.6-11.3,10.7-11.3c6,0,10.7,5,10.7,11.3v0.1
			C405.1,238.4,400.5,243.2,394.5,243.2z"/>
		<polygon class="st7" points="423.7,217.9 420.5,217.9 420.5,246 439.5,246 439.5,242.8 423.7,242.8 		"/>
		<path class="st7" d="M469,233.7c0,6.1-2.9,9.5-8.3,9.5c-5.3,0-8.4-3.5-8.4-9.6v-15.8h-3.3v15.8c0,7.8,4.5,12.7,11.6,12.7
			c7.3,0,11.6-4.8,11.6-12.8v-15.7H469V233.7z"/>
		<path class="st7" d="M506.4,239.4c-2.6,2.6-5.3,3.9-8.6,3.9c-5.9,0-10.6-5-10.6-11.4c0-6.3,4.6-11.3,10.5-11.3
			c4.1,0,6.5,1.7,8.5,3.6l0.7,0.7l2.3-2.4l-0.7-0.7c-2.9-2.6-5.8-4.4-10.7-4.4c-7.8,0-13.9,6.4-13.9,14.5v0.1
			c0,8.1,6.1,14.4,13.8,14.4c4.2,0,7.8-1.6,11-4.8l0.7-0.7l-2.3-2.2L506.4,239.4z"/>
		<rect x="520" y="217.9" class="st7" width="3.3" height="28.1"/>
		<path class="st7" d="M549.7,217.4c-8,0-14,6.2-14,14.5v0.1c0,8.2,6,14.5,14,14.5c8,0,14-6.2,14-14.5
			C563.7,223.6,557.6,217.4,549.7,217.4z M549.7,243.2c-6,0-10.8-5-10.8-11.4c0-6.4,4.6-11.3,10.7-11.3c6,0,10.7,5,10.7,11.3v0.1
			C560.3,238.4,555.8,243.2,549.7,243.2z"/>
		<polygon class="st7" points="595.9,239.9 578.4,217.9 575.7,217.9 575.7,246 578.9,246 578.9,223.7 596.7,246 599.2,246 
			599.2,217.9 595.9,217.9 		"/>
		<polygon class="st7" points="615.7,233.4 631.1,233.4 631.1,230.2 615.7,230.2 615.7,221 632.8,221 632.8,217.9 612.4,217.9 
			612.4,246 632.9,246 632.9,242.8 615.7,242.8 		"/>
		<path class="st7" d="M654.4,230.2c-6.7-1.4-7.3-3.1-7.3-5.1c0-2.2,2.1-4.5,6.1-4.5c2.8,0,5.3,0.9,7.5,2.7l0.8,0.6l2-2.6l-0.8-0.6
			c-2.8-2.2-5.9-3.3-9.5-3.3c-5.4,0-9.5,3.3-9.5,7.8c0,4.3,2.8,6.7,9.7,8c6.7,1.4,7.2,3,7.2,5.1c0,2.8-2.7,4.7-6.4,4.7
			c-3.4,0-6.3-1.2-8.9-3.7l-0.7-0.7l-2.2,2.4l0.7,0.7c3.2,3,6.9,4.4,11.1,4.4c5.8,0,9.8-3.3,9.8-8.1
			C664,234,661.1,231.6,654.4,230.2z"/>
		<path class="st7" d="M703.5,217.9H694V246h9.5c8.6,0,14.9-5.9,14.9-14.1C718.4,223.8,712.2,217.9,703.5,217.9z M703.6,242.8h-6.3
			V221h6.2c6.7,0,11.6,4.6,11.6,11C715.1,238.3,710.3,242.8,703.6,242.8z"/>
		<rect x="730.7" y="217.9" class="st7" width="3.3" height="28.1"/>
		<path class="st7" d="M758.9,233.9h9.3v6.5c-1.3,1-4.2,2.8-7.9,2.8c-6.3,0-10.7-4.7-10.7-11.4c0-5.6,3.9-11.3,10.5-11.3
			c3.6,0,5.7,1.2,7.9,3l0.8,0.6l2.1-2.5l-0.8-0.6c-3.1-2.6-6-3.6-9.9-3.6c-8.7,0-13.9,7.4-13.9,14.5v0.1c0,8.5,5.7,14.4,14,14.4
			c5.4,0,9.1-2.7,10.8-4.2l0.3-0.3v-11.2h-12.5V233.9z"/>
		<rect x="784.3" y="217.9" class="st7" width="3.3" height="28.1"/>
		<polygon class="st7" points="798.6,221 807.8,221 807.8,246 811.1,246 811.1,221 820.4,221 820.4,217.9 798.6,217.9 		"/>
		<path class="st7" d="M838.1,217.7L824.8,246h3.5l3.6-7.6h14.9l3.5,7.6h3.6l-13.3-28.3H838.1z M833.4,235.2l5.9-12.7l5.9,12.7
			H833.4z"/>
		<polygon class="st7" points="867.4,217.9 864.1,217.9 864.1,246 883.1,246 883.1,242.8 867.4,242.8 		"/>
		<polygon class="st7" points="897.2,233.4 912.6,233.4 912.6,230.2 897.2,230.2 897.2,221 914.3,221 914.3,217.9 893.9,217.9 
			893.9,246 914.4,246 914.4,242.8 897.2,242.8 		"/>
		<path class="st7" d="M935.9,230.2c-6.7-1.4-7.3-3.1-7.3-5.1c0-2.2,2.1-4.5,6.1-4.5c2.8,0,5.3,0.9,7.5,2.7l0.8,0.6l2-2.6l-0.8-0.6
			c-2.8-2.2-5.9-3.3-9.5-3.3c-5.4,0-9.5,3.3-9.5,7.8c0,4.3,2.8,6.7,9.7,8c6.7,1.4,7.3,3,7.3,5.1c0,2.8-2.7,4.7-6.5,4.7
			c-3.4,0-6.3-1.2-8.9-3.7l-0.7-0.7l-2.2,2.4l0.7,0.7c3.2,3,6.9,4.4,11.1,4.4c5.8,0,9.8-3.3,9.8-8.1
			C945.5,234,942.6,231.6,935.9,230.2z"/>
	</g>
</g>
</svg>
